<?xml version="1.0" encoding="utf-8"?>
<!-- Generator: Adobe Illustrator 25.2.1, SVG Export Plug-In . SVG Version: 6.00 Build 0)  -->
<svg version="1.1" id="Camada_1" xmlns="http://www.w3.org/2000/svg" xmlns:xlink="http://www.w3.org/1999/xlink" x="0px" y="0px"
	 viewBox="0 0 1298.5 413.9" style="enable-background:new 0 0 1298.5 413.9;" xml:space="preserve">
<style type="text/css">
	.st0{fill:#EF7925;}
	.st1{fill:#D81C27;}
	.st2{fill:#A7A9AC;}
</style>
<g>
	<g>
		<polygon class="st0" points="124.4,269.4 229.1,310.8 229.1,266.9 124.4,225.9 		"/>
		<polygon class="st1" points="302.7,206.1 267.4,235.3 229.1,266.9 229.1,310.8 302.8,252 302.8,206 		"/>
		<polygon class="st0" points="197.9,147 302.8,187.5 302.8,144 197.9,103.2 		"/>
		<polygon class="st1" points="198,103.1 124.2,164.6 159.4,177.9 198,147 		"/>
		<polygon class="st2" points="124.2,206.8 210,239.1 210,196.4 124.2,164.6 		"/>
		<polygon class="st2" points="302.7,206.1 225.7,176.5 225.7,219.2 267.4,235.3 302.7,206.1 		"/>
	</g>
	<path class="st1" d="M342.8,232l10-15.5c9,6.5,18.4,9.9,26.1,9.9c6.8,0,9.9-2.5,9.9-6.2V220c0-5.1-8-6.8-17.2-9.6
		c-11.6-3.4-24.7-8.8-24.7-24.9v-0.3c0-16.9,13.6-26.3,30.3-26.3c10.5,0,22,3.6,30.9,9.6l-9,16.2c-8.2-4.8-16.4-7.7-22.4-7.7
		c-5.7,0-8.7,2.5-8.7,5.7v0.3c0,4.6,7.9,6.8,16.9,9.9c11.6,3.9,25,9.4,25,24.6v0.3c0,18.4-13.8,26.7-31.7,26.7
		C366.8,244.5,353.8,240.7,342.8,232"/>
	<path class="st1" d="M419.8,202v-0.3c0-23.7,18.1-43.1,43.5-43.1c15.6,0,25.4,5.3,33.1,13.9l-14.4,15.5c-5.2-5.6-10.5-9.1-18.9-9.1
		c-11.7,0-20.1,10.4-20.1,22.6v0.3c0,12.7,8.2,22.9,21,22.9c7.9,0,13.3-3.4,19-8.8l13.8,13.9c-8,8.8-17.3,15.2-33.9,15.2
		C438,244.9,419.8,225.7,419.8,202"/>
	<path class="st1" d="M504.1,219.2v-0.3c0-18.1,13.8-26.4,33.4-26.4c8.3,0,14.4,1.4,20.3,3.4v-1.4c0-9.7-6-15.2-17.8-15.2
		c-9,0-15.3,1.7-22.9,4.5l-5.9-17.9c9.1-4,18.1-6.6,32.2-6.6c12.8,0,22.1,3.4,28,9.3c6.2,6.2,9,15.3,9,26.4V243h-22.7v-9
		c-5.7,6.3-13.6,10.5-25,10.5C516.9,244.5,504.1,235.6,504.1,219.2 M558,213.8v-4.2c-4-1.9-9.3-3.1-15-3.1c-10,0-16.2,4-16.2,11.4
		v0.3c0,6.3,5.3,10.1,12.8,10.1C550.6,228.3,558,222.3,558,213.8"/>
	<path class="st1" d="M594.4,160.1h23.5v11.7c5.4-7,12.4-13.3,24.3-13.3c17.8,0,28.1,11.7,28.1,30.8V243h-23.5v-46.2
		c0-11.1-5.2-16.8-14.2-16.8c-9,0-14.7,5.7-14.7,16.8V243h-23.5V160.1z"/>
	<path class="st0" d="M681.1,232l10-15.5c9,6.5,18.4,9.9,26.1,9.9c6.8,0,9.9-2.5,9.9-6.2V220c0-5.1-8-6.8-17.2-9.6
		c-11.6-3.4-24.7-8.8-24.7-24.9v-0.3c0-16.9,13.6-26.3,30.3-26.3c10.5,0,22,3.6,30.9,9.6l-9,16.2c-8.2-4.8-16.4-7.7-22.4-7.7
		c-5.7,0-8.7,2.5-8.7,5.7v0.3c0,4.6,7.9,6.8,16.9,9.9c11.6,3.9,25,9.4,25,24.6v0.3c0,18.4-13.8,26.7-31.7,26.7
		C705.1,244.5,692.1,240.7,681.1,232"/>
	<path class="st0" d="M755,202v-0.3c0-23.8,19.2-43.1,45-43.1c25.7,0,44.7,19,44.7,42.8v0.3c0,23.8-19.2,43.1-45,43.1
		C774,244.9,755,225.8,755,202 M821.5,202v-0.3c0-12.2-8.8-22.9-21.8-22.9c-13.5,0-21.5,10.4-21.5,22.6v0.3
		c0,12.2,8.8,22.9,21.8,22.9C813.5,224.6,821.5,214.2,821.5,202"/>
	<path class="st0" d="M854.9,213.8v-53.6h23.5v46.2c0,11.1,5.3,16.9,14.2,16.9c9,0,14.7-5.7,14.7-16.9v-46.2h23.5V243h-23.5v-11.7
		c-5.4,7-12.4,13.3-24.3,13.3C865.2,244.5,854.9,232.8,854.9,213.8"/>
	<path class="st0" d="M945.6,160.1h23.5v16.7c4.8-11.5,12.5-18.9,26.4-18.3v24.6h-1.2c-15.6,0-25.2,9.4-25.2,29.2V243h-23.5V160.1z"
		/>
	<path class="st0" d="M1000.8,202v-0.3c0-23.7,18.1-43.1,43.5-43.1c15.6,0,25.3,5.3,33.1,13.9l-14.4,15.5
		c-5.3-5.6-10.5-9.1-18.9-9.1c-11.8,0-20.1,10.4-20.1,22.6v0.3c0,12.7,8.2,22.9,21,22.9c7.9,0,13.3-3.4,19-8.8l13.8,13.9
		c-8,8.8-17.3,15.2-33.9,15.2C1019.1,244.9,1000.8,225.7,1000.8,202"/>
	<path class="st0" d="M1080.6,202v-0.3c0-23.7,16.8-43.1,41-43.1c27.7,0,40.3,21.5,40.3,45c0,1.8-0.1,4-0.3,6.2H1104
		c2.3,10.7,9.7,16.2,20.3,16.2c7.9,0,13.6-2.5,20.1-8.5l13.5,11.9c-7.7,9.6-18.9,15.5-33.9,15.5C1099,244.9,1080.6,227.4,1080.6,202
		 M1139.1,195.1c-1.4-10.5-7.6-17.6-17.5-17.6c-9.8,0-16.1,7-17.9,17.6H1139.1z"/>
	<path class="st2" d="M1154,158.5c0-6,4.7-10.5,10.2-10.5c5.5,0,10.1,4.5,10.1,10.5c0,6.1-4.7,10.5-10.1,10.5
		C1158.7,169.1,1154,164.6,1154,158.5 M1164.2,167.3c4.5,0,8.1-3.7,8.1-8.8c0-5-3.6-8.7-8.1-8.7c-4.6,0-8.2,3.8-8.2,8.7
		C1156,163.6,1159.6,167.3,1164.2,167.3 M1162.1,164.6h-1.8v-12.1h4.4c2.7,0,4.1,1.1,4.1,3.4c0,2.2-1.3,3.1-3,3.3l3.3,5.3h-2l-3-5.3
		h-2V164.6z M1164.2,157.8c1.5,0,2.8-0.1,2.8-2c0-1.5-1.3-1.8-2.5-1.8h-2.4v3.8H1164.2z"/>
</g>
</svg>
